<?xml version="1.0" encoding="utf-8"?>
<!-- Generator: Adobe Illustrator 26.4.1, SVG Export Plug-In . SVG Version: 6.00 Build 0)  -->
<svg version="1.1" id="Capa_2_00000158714005463941266470000007504887508649660581_"
	 xmlns="http://www.w3.org/2000/svg" xmlns:xlink="http://www.w3.org/1999/xlink" x="0px" y="0px" viewBox="0 0 323.3 185.5"
	 style="enable-background:new 0 0 323.3 185.5;" xml:space="preserve">
<style type="text/css">
	.st0{fill:#FFFFFF;}
</style>
<g id="Capa_1-2">
	<path class="st0" d="M7.3,7.3L7.3,7.3c9.7-9.7,25.4-9.7,35.1,0l135.8,135.8c9.7,9.7,9.7,25.4,0,35.1l0,0c-9.7,9.7-25.4,9.7-35.1,0
		L7.3,42.4C-2.4,32.7-2.4,17,7.3,7.3z"/>
	<path class="st0" d="M316.1,7.3L316.1,7.3c9.7,9.7,9.7,25.4,0,35.1L180.2,178.2c-9.7,9.7-25.4,9.7-35.1,0l0,0
		c-9.7-9.7-9.7-25.4,0-35.1L280.9,7.3C290.6-2.4,306.4-2.4,316.1,7.3z"/>
</g>
</svg>
