<?xml version="1.0" encoding="utf-8"?>
<!-- Generator: Adobe Illustrator 26.4.1, SVG Export Plug-In . SVG Version: 6.00 Build 0)  -->
<svg version="1.1" id="Capa_2_00000129890928024282328330000014055394366318070185_"
	 xmlns="http://www.w3.org/2000/svg" xmlns:xlink="http://www.w3.org/1999/xlink" x="0px" y="0px" viewBox="0 0 471.6 333.8"
	 style="enable-background:new 0 0 471.6 333.8;" xml:space="preserve">
<style type="text/css">
	.st0{fill:#FFFFFF;}
</style>
<g id="Capa_1-2">
	<path class="st0" d="M7.3,155.6L7.3,155.6c9.7-9.7,25.4-9.7,35.1,0l135.8,135.8c9.7,9.7,9.7,25.4,0,35.1l0,0
		c-9.7,9.7-25.4,9.7-35.1,0L7.3,190.7C-2.4,181-2.4,165.3,7.3,155.6z"/>
	<path class="st0" d="M464.4,7.3L464.4,7.3c9.7,9.7,9.7,25.4,0,35.1L180.2,326.5c-9.7,9.7-25.4,9.7-35.1,0l0,0
		c-9.7-9.7-9.7-25.4,0-35.1L429.2,7.3C438.9-2.4,454.7-2.4,464.4,7.3z"/>
</g>
</svg>
