<?xml version="1.0" encoding="utf-8"?>
<!-- Generator: Adobe Illustrator 26.4.1, SVG Export Plug-In . SVG Version: 6.00 Build 0)  -->
<svg version="1.1" id="Capa_2_00000039095885141446608940000018077988428529180036_"
	 xmlns="http://www.w3.org/2000/svg" xmlns:xlink="http://www.w3.org/1999/xlink" x="0px" y="0px" viewBox="0 0 507.7 505.8"
	 style="enable-background:new 0 0 507.7 505.8;" xml:space="preserve">
<style type="text/css">
	.st0{fill:#FFFFFF;}
</style>
<g id="Capa_1-2">
	<path class="st0" d="M211.9,0.1C103.4-3.3,7.7,78.1,0.4,190.9c-7.2,112.9,79,209.7,191.8,216.4c116.3,6.9,214.2-81.5,218.3-196.8
		C414.3,100.1,327.8,4.4,211.9,0.1z M366.3,209.1c-3.2,91.1-80,161-171.2,155.5c-88.5-5.3-156.1-81.8-150.4-171
		c5.7-89.2,80.8-153.4,165.9-150.8C301.4,46.2,369.3,121.9,366.3,209.1L366.3,209.1z"/>
	<path class="st0" d="M329.5,327.6L329.5,327.6c9.7-9.7,25.4-9.7,35.1,0l135.8,135.8c9.7,9.7,9.7,25.4,0,35.1l0,0
		c-9.7,9.7-25.4,9.7-35.1,0L329.5,362.7C319.8,353,319.8,337.3,329.5,327.6z"/>
</g>
</svg>
