<?xml version="1.0" encoding="utf-8"?>
<!-- Generator: Adobe Illustrator 26.4.1, SVG Export Plug-In . SVG Version: 6.00 Build 0)  -->
<svg version="1.1" id="Capa_2_00000023997970427299448260000014950774605608287147_"
	 xmlns="http://www.w3.org/2000/svg" xmlns:xlink="http://www.w3.org/1999/xlink" x="0px" y="0px" viewBox="0 0 71.4 103.7"
	 style="enable-background:new 0 0 71.4 103.7;" xml:space="preserve">
<style type="text/css">
	.st0{fill:#FFFFFF;}
</style>
<g id="Capa_1-2">
	<path class="st0" d="M35.2,18c10,0,20,0,30,0c1.4,0,2.5,1,2.4,2.5c-0.2,3.3-0.4,6.6-0.7,9.9c-0.2,3.1-0.4,6.2-0.6,9.3
		c-0.2,3-0.4,5.9-0.6,8.9c-0.2,3.7-0.5,7.5-0.8,11.2c-0.2,3.8-0.5,7.6-0.8,11.4c-0.3,4.2-0.6,8.3-0.8,12.4
		c-0.3,4.3-0.6,8.6-0.9,12.8c-0.1,1.7-0.2,3.4-0.3,5.1c-0.1,1.3-1.1,2.2-2.4,2.2c-4.5,0-9,0-13.5,0c-7,0-13.9,0-20.9,0
		c-4.8,0-9.7,0-14.5,0c-1.5,0-2.4-0.8-2.5-2.3c-0.2-2.6-0.3-5.1-0.5-7.7c-0.2-3.2-0.4-6.4-0.6-9.6c-0.2-3-0.4-6.1-0.6-9.1
		C6.2,71.3,6,67.7,5.7,64c-0.2-2.6-0.3-5.2-0.5-7.7C5,52.6,4.7,49.1,4.5,45.5c-0.2-2.5-0.3-5-0.5-7.6c-0.3-4.3-0.6-8.7-0.9-13
		C3,23.5,3,22.1,2.8,20.7C2.6,19.2,3.7,18,5.5,18c6.7,0.1,13.5,0,20.2,0C28.9,18,32,18,35.2,18L35.2,18L35.2,18z M35.2,22.6
		c-9,0-18,0-27,0c-0.5,0-0.6,0.1-0.6,0.6c0.3,4.1,0.6,8.1,0.8,12.2c0.1,1.8,0.2,3.6,0.4,5.3c0.2,3.2,0.4,6.4,0.6,9.7
		c0.2,3.1,0.4,6.2,0.6,9.3c0.2,3.6,0.5,7.3,0.8,10.9c0.2,3.1,0.4,6.1,0.6,9.2c0.2,3.6,0.5,7.3,0.8,10.9c0.2,2.7,0.4,5.3,0.5,8
		c0,0.3,0.1,0.5,0.5,0.5c5.6,0,11.2,0,16.8,0c9.1,0,18.1,0,27.2,0c0.4,0,0.5-0.1,0.6-0.5c0.1-1.8,0.2-3.5,0.3-5.3
		c0.2-3.1,0.4-6.1,0.7-9.2c0.2-2.5,0.3-4.9,0.5-7.4c0.2-3.5,0.5-7,0.7-10.5c0.2-3.8,0.5-7.6,0.8-11.4c0.2-3.7,0.5-7.5,0.8-11.2
		c0.2-3.6,0.5-7.2,0.7-10.8c0.2-3.2,0.4-6.5,0.7-9.7c0-0.4-0.1-0.5-0.5-0.5C53.3,22.6,44.3,22.6,35.2,22.6L35.2,22.6z"/>
	<path class="st0" d="M3.1,14.5c-0.8,0-1.5,0.1-2.2-0.4c-0.8-0.6-1.1-1.5-0.9-2.4c0.3-1,1-1.7,2-1.7c3.6-0.2,7.2-0.4,10.9-0.6
		c3.8-0.2,7.6-0.4,11.4-0.6c0.6,0,1.2-0.1,1.8-0.1c0.4,0,0.5-0.1,0.5-0.5c-0.1-2.2-0.2-4.4-0.4-6.7c0-0.4,0.1-0.5,0.5-0.5
		c3.3-0.2,6.6-0.4,9.9-0.5c2.5-0.1,5.1-0.3,7.6-0.4c0.4,0,0.5,0.1,0.5,0.5C44.8,2.7,45,4.9,45,7.1c0,0.4,0.1,0.5,0.5,0.5
		C50.9,7.3,56.2,7,61.5,6.7c2.5-0.1,4.9-0.3,7.4-0.4c1.5-0.1,2.5,1,2.5,2.5c-0.1,1.1-1,2.1-2.2,2.2c-3.1,0.2-6.1,0.3-9.2,0.5
		c-4,0.2-8,0.4-12,0.6c-3.1,0.2-6.2,0.3-9.3,0.5c-3.8,0.2-7.7,0.4-11.5,0.6c-3.1,0.2-6.3,0.3-9.5,0.5c-4,0.2-8,0.4-11.9,0.7
		C4.9,14.4,4,14.4,3.1,14.5L3.1,14.5z M35.7,8.1C35.7,8.1,35.7,8.1,35.7,8.1c1.5-0.1,3-0.2,4.5-0.2c0.3,0,0.4-0.2,0.3-0.4
		c0-0.6-0.1-1.1-0.1-1.7c0-1,0-1-1-0.9c-2.7,0.2-5.3,0.3-8,0.4c-0.3,0-0.3,0-0.3,0.3c0.1,0.7,0.1,1.4,0.1,2.2c0,0.4,0.1,0.6,0.6,0.5
		C33,8.2,34.3,8.2,35.7,8.1L35.7,8.1z"/>
	<path class="st0" d="M19,60.8c0-10.3,0-20.7,0-31c0-1.5,1-2.6,2.4-2.5c1.2,0,2.1,0.9,2.2,2.1c0,0.5,0,1,0,1.4c0,10.1,0,20.2,0,30.3
		c0,6.5,0,12.9,0,19.4c0,3.8,0,7.7,0,11.5c0,1.7-1.7,3.1-3.4,2.2C19.4,93.7,19,93,19,92c0-3.2,0-6.4,0-9.6c0-4.3,0-8.7,0-13
		C19,66.5,19,63.7,19,60.8L19,60.8L19,60.8z"/>
	<path class="st0" d="M37.5,60.9c0,9.8,0,19.7,0,29.5c0,0.6,0,1.1,0,1.7c0,1.4-1,2.4-2.3,2.4c-1.4,0-2.3-1.3-2.3-2.4
		c0-12.9,0-25.8,0-38.8c0-7.7,0-15.4,0-23.1c0-0.4,0-0.8,0.1-1.2c0.2-1.1,1.3-1.8,2.5-1.7s2,1,2,2.2c0,6.2,0,12.3,0,18.5
		C37.5,52.3,37.5,56.6,37.5,60.9L37.5,60.9L37.5,60.9z"/>
	<path class="st0" d="M51.5,60.8c0,4.9,0,9.8,0,14.7c0,5.5,0,11,0,16.5c0,1.3-1.2,2.5-2.4,2.4c-1.1-0.1-2.1-0.9-2.2-2.1
		c-0.1-0.7,0-1.4,0-2.1c0-2.9,0.1-5.9,0-8.8c-0.1-6.4,0-12.7,0-19.1c0-7.7,0-15.4,0-23c0-3.2,0-6.5,0-9.7c0-1.1,0.6-2,1.6-2.3
		c1-0.3,2,0,2.7,0.9c0.3,0.4,0.4,0.8,0.4,1.2c0,1.5,0,3,0,4.4C51.4,42.9,51.4,51.9,51.5,60.8L51.5,60.8L51.5,60.8z"/>
</g>
</svg>
